<mxfile host="app.diagrams.net" modified="2023-07-05T01:42:09.744Z" agent="Mozilla/5.0 (Windows NT 10.0; Win64; x64) AppleWebKit/537.36 (KHTML, like Gecko) Chrome/114.0.0.0 Safari/537.36 OPR/100.0.0.0" version="21.5.2" etag="xs26yCw07O4FLcm8gn-z" type="github">
  <diagram name="PÃ¡gina-1" id="PIgNQbAroBplTFzdDUQ2">
    <mxGraphModel>
      <root>
        <mxCell id="0" />
        <mxCell id="1" parent="0" />
      </root>
    </mxGraphModel>
  </diagram>
</mxfile>
